<?xml version="1.0" encoding="UTF-8"?>
<svg version="1.1" xmlns="http://www.w3.org/2000/svg" viewBox="34 139 421 165" width="421" height="165">
<path d="M0 0 C0.91338135 0.00088623 1.8267627 0.00177246 2.76782227 0.00268555 C13.50189253 0.18715836 23.45578501 2.28960911 33 7.375 C31.88713025 10.85816667 30.75770117 14.33573669 29.625 17.8125 C29.14933594 19.30233398 29.14933594 19.30233398 28.6640625 20.82226562 C28.2 22.23862305 28.2 22.23862305 27.7265625 23.68359375 C27.30238037 24.99541626 27.30238037 24.99541626 26.86962891 26.33374023 C26 28.375 26 28.375 24 29.375 C21.96363774 28.77993966 19.94549696 28.1222016 17.9375 27.4375 C9.55436043 24.90427714 1.68607363 24.9964302 -7 25.375 C-7 27.355 -7 29.335 -7 31.375 C-5.824375 31.766875 -4.64875 32.15875 -3.4375 32.5625 C-2.61894531 32.83964844 -1.80039063 33.11679688 -0.95703125 33.40234375 C1.2024082 34.11264814 3.37359093 34.78753061 5.55078125 35.44140625 C16.69363492 38.83865283 26.52579794 42.79209163 32.87890625 53.06640625 C37.09199796 61.74214562 37.39052751 71.0043197 34.5 80.1875 C31.43752307 87.53316145 26.54019126 92.55028583 19.25 95.75 C0.94205621 102.09600505 -18.49998028 100.10688055 -36 92.375 C-34.47536437 84.87887484 -32.31993846 77.66140866 -30 70.375 C-25.91904842 70.81224481 -22.16514135 71.33168424 -18.1875 72.375 C-9.74455003 74.56023411 -2.39774518 74.71535521 6 72.375 C6 70.725 6 69.075 6 67.375 C0.46076166 64.44209263 -4.88778675 62.36148692 -10.875 60.5625 C-21.74865947 57.07136598 -29.23950893 52.96398536 -34.94140625 42.70703125 C-38.48473171 34.90125523 -37.82177505 25.7088641 -35.09765625 17.7265625 C-31.62845861 10.29433126 -25.51700293 5.40056436 -18 2.375 C-11.9169884 0.5312697 -6.3415811 -0.01113895 0 0 Z " fill="#6653FA" transform="translate(74,179.625)"/>
<path d="M0 0 C7.33394337 6.2358853 12.20201137 12.63712571 13.80078125 22.359375 C14.58312473 32.99623738 13.36180419 42.13697357 6.4609375 50.546875 C-1.77541234 59.53903106 -11.04682745 63.40768171 -23.19921875 64.359375 C-35.3049365 64.48124464 -45.76669861 62.22237569 -55.19140625 54.3515625 C-63.51948497 46.08829374 -66.03920271 36.85143612 -66.19921875 25.359375 C-65.56893085 15.8630373 -61.3018174 7.9577907 -54.38671875 1.484375 C-39.68979278 -10.345537 -15.31231262 -11.42303961 0 0 Z M-33.19921875 16.359375 C-36.62760117 19.9681986 -38.0644918 22.60792469 -38.44921875 27.609375 C-38.08837933 33.02196637 -36.64430108 36.7491404 -33.01171875 40.796875 C-29.34164961 42.8358023 -26.25344885 43.1225242 -22.19921875 42.359375 C-18.12300863 40.513544 -16.02838629 38.65201963 -14.26171875 34.609375 C-12.56696862 29.2242814 -13.10694253 24.69996691 -15.51171875 19.546875 C-17.86390433 16.49774555 -19.90659623 14.84847541 -23.51171875 13.484375 C-27.41318012 13.30291168 -29.79594476 14.50304374 -33.19921875 16.359375 Z " fill="#6653FB" transform="translate(331.19921875,213.640625)"/>
<path d="M0 0 C6.61299696 5.21705127 11.40816058 11.381272 13.18359375 19.72265625 C14.36950049 30.58525062 14.08022045 40.74341363 7.640625 49.921875 C0.97296833 58.17634241 -7.64606025 62.68360012 -18.078125 64.1953125 C-31.78191068 65.50689595 -43.71915437 63.53726435 -54.94921875 55.125 C-61.27500247 49.33321101 -65.39048273 41.20380322 -66.0546875 32.65625 C-66.27107996 22.46302636 -65.09798351 14.25122383 -58.37890625 6.28515625 C-43.35037209 -9.3152883 -18.30378771 -12.23258062 0 0 Z M-33.81640625 16.72265625 C-37.38185532 20.37952709 -38.09384447 23.32991036 -38.25390625 28.28515625 C-38.01713732 34.10967205 -36.6072075 36.8295235 -32.62890625 41.03515625 C-28.99169888 43.21748067 -25.90085359 43.65784282 -21.81640625 42.72265625 C-18.00385696 40.60271126 -15.44749391 37.76330524 -13.81640625 33.72265625 C-12.83863846 26.93512871 -13.79497409 22.23776321 -17.81640625 16.72265625 C-23.63091661 12.84631601 -27.81263396 13.27604623 -33.81640625 16.72265625 Z " fill="#6653FA" transform="translate(245.81640625,213.27734375)"/>
<path d="M0 0 C0.33 23.1 0.66 46.2 1 70 C7.77882475 71.97050322 7.77882475 71.97050322 14 71 C15 72 15 72 15.11352539 73.85766602 C15.10828857 74.64842529 15.10305176 75.43918457 15.09765625 76.25390625 C15.09443359 77.10791016 15.09121094 77.96191406 15.08789062 78.84179688 C15.07532227 80.18854492 15.07532227 80.18854492 15.0625 81.5625 C15.05798828 82.46419922 15.05347656 83.36589844 15.04882812 84.29492188 C15.03700225 86.53001314 15.0205222 88.76497437 15 91 C10.49321724 93.54031388 6.34592555 94.72664231 1.25 95.3125 C0.19437866 95.43540405 0.19437866 95.43540405 -0.88256836 95.56079102 C-8.88178254 96.35970347 -16.01310524 95.7497852 -22.46484375 90.625 C-28.44875807 84.29088204 -30.12830131 77.3883498 -30.11352539 68.93652344 C-30.11367142 68.23368225 -30.11381744 67.53084106 -30.1139679 66.80670166 C-30.11327299 64.49089437 -30.10550038 62.17516819 -30.09765625 59.859375 C-30.09579057 58.25083459 -30.09436737 56.64229362 -30.09336853 55.03375244 C-30.08955516 50.80544458 -30.07973495 46.57717121 -30.06866455 42.34887695 C-30.05842506 38.03206855 -30.05386547 33.71525456 -30.04882812 29.3984375 C-30.03811162 20.93227586 -30.02104937 12.46614222 -30 4 C-28.57187476 3.67905363 -27.14352722 3.35909635 -25.71508789 3.03955078 C-24.91970108 2.8612674 -24.12431427 2.68298401 -23.30482483 2.4992981 C-20.36172435 1.86172927 -17.4119318 1.34405933 -14.4375 0.875 C-13.40496094 0.70742187 -12.37242187 0.53984375 -11.30859375 0.3671875 C-7.5600896 -0.04882122 -3.77151781 0 0 0 Z " fill="#6753FB" transform="translate(384,182)"/>
<path d="M0 0 C-0.14219564 2.20857055 -0.28891847 4.41684987 -0.4375 6.625 C-0.51871094 7.85476562 -0.59992188 9.08453125 -0.68359375 10.3515625 C-0.96663944 13.61532388 -1.41038953 16.77943859 -2 20 C-2.9075 19.835 -3.815 19.67 -4.75 19.5 C-8.20764012 19.02016423 -11.63566508 18.83615642 -15.125 18.75 C-16.11757812 18.72421875 -17.11015625 18.6984375 -18.1328125 18.671875 C-21.51896118 19.05939065 -23.30604658 19.93059633 -26 22 C-28.91377506 26.23421694 -28.52023918 31.06172962 -28 36 C-26.77306748 38.94463805 -25.94545641 40.38339799 -23.29296875 42.11328125 C-20.28705665 43.27570382 -17.77851001 43.22839724 -14.5625 43.1875 C-12.89380859 43.17783203 -12.89380859 43.17783203 -11.19140625 43.16796875 C-8.03863473 43.07983803 -8.03863473 43.07983803 -5.15234375 42.42578125 C-4.44207031 42.28527344 -3.73179687 42.14476562 -3 42 C-1.46298119 43.53701881 -1.67701275 45.11807163 -1.46484375 47.25390625 C-1.33432617 48.53491211 -1.33432617 48.53491211 -1.20117188 49.84179688 C-1.0706543 51.18854492 -1.0706543 51.18854492 -0.9375 52.5625 C-0.84662109 53.46419922 -0.75574219 54.36589844 -0.66210938 55.29492188 C-0.43746077 57.52958434 -0.21694231 59.76457839 0 62 C-9.95402522 67.50975694 -21.37680218 68.24820265 -32.43359375 65.79296875 C-39.39539235 63.64191073 -45.23410161 60.60693928 -50 55 C-50.680625 54.278125 -51.36125 53.55625 -52.0625 52.8125 C-57.83921109 44.42695164 -59.84372871 34.9985076 -58.62890625 24.921875 C-56.58589187 15.02404137 -51.55691421 6.99083149 -43.17578125 1.24609375 C-29.65955076 -6.49479947 -13.85362115 -7.41432803 0 0 Z " fill="#6653F9" transform="translate(175,211)"/>
<path d="M0 0 C9.9 0 19.8 0 30 0 C30.33 15.18 30.66 30.36 31 46 C34.63 46 38.26 46 42 46 C43.03026944 52.69675136 43.10152799 59.2314676 43 66 C34.34639972 71.06153978 26.00139189 72.05114308 16.22265625 69.7265625 C10.75762739 67.94010315 7.16770555 64.69694272 4 60 C0.08078132 52.01640638 -0.1427445 44.8433354 -0.09765625 36.1328125 C-0.0962413 35.09808807 -0.09482635 34.06336365 -0.09336853 32.99728394 C-0.08779039 29.70649268 -0.07524188 26.41577054 -0.0625 23.125 C-0.05748218 20.88802182 -0.05291976 18.65104257 -0.04882812 16.4140625 C-0.03868087 10.94266056 -0.01910111 5.47140726 0 0 Z " fill="#6653FC" transform="translate(405,207)"/>
<path d="M0 0 C0.66 0.33 1.32 0.66 2 1 C2.53236743 3.04464193 2.9764357 5.11262116 3.375 7.1875 C4.89598159 14.11137143 7.15149305 19.26794739 12.80859375 23.83203125 C18.05079571 26.62600342 24.23655964 27.68746078 30 29 C29.67 29.66 29.34 30.32 29 31 C27.12328008 31.53120222 25.22165836 31.97579099 23.3125 32.375 C16.40683485 34.01959561 11.59366163 36.47870893 7.09765625 42.16015625 C4.08313015 47.21297402 3.09948136 53.28880514 2 59 C1.34 59 0.68 59 0 59 C-0.15855469 58.2265625 -0.31710937 57.453125 -0.48046875 56.65625 C-2.46183824 47.81124145 -4.62514839 41.1650702 -12.125 35.6875 C-17.0899464 32.61475914 -22.3277556 31.20866516 -28 30 C-25.12167013 28.44200493 -22.41929375 27.53727679 -19.25 26.75 C-12.70991716 24.77545363 -7.84601063 22.3062877 -4.4296875 16.1875 C-2.10206058 10.86720989 -0.39558141 5.80186074 0 0 Z " fill="#B369DF" transform="translate(421,139)"/>
<path d="M0 0 C4.77939483 1.04549262 9.51677937 2.25642054 14.25 3.4921875 C13.92 4.1521875 13.59 4.8121875 13.25 5.4921875 C11.37328008 6.02338972 9.47165836 6.46797849 7.5625 6.8671875 C0.65683485 8.51178311 -4.15633837 10.97089643 -8.65234375 16.65234375 C-11.66686985 21.70516152 -12.65051864 27.78099264 -13.75 33.4921875 C-14.41 33.4921875 -15.07 33.4921875 -15.75 33.4921875 C-16.42076489 30.72228786 -17.08676317 27.95139008 -17.75 25.1796875 C-17.94078125 24.39400391 -18.1315625 23.60832031 -18.328125 22.79882812 C-18.50859375 22.04150391 -18.6890625 21.28417969 -18.875 20.50390625 C-19.12636719 19.45916138 -19.12636719 19.45916138 -19.3828125 18.39331055 C-19.75 16.4921875 -19.75 16.4921875 -19.75 13.4921875 C-19.09 13.4921875 -18.43 13.4921875 -17.75 13.4921875 C-17.75 12.8321875 -17.75 12.1721875 -17.75 11.4921875 C-16.6671875 11.2446875 -16.6671875 11.2446875 -15.5625 10.9921875 C-11.97942947 9.08121655 -10.87462466 6.86062984 -8.9609375 3.3671875 C-6.48536254 -0.46596083 -4.22420449 -0.7465189 0 0 Z " fill="#27BDEB" transform="translate(436.75,164.5078125)"/>
<path d="M0 0 C9.9 0 19.8 0 30 0 C30 14.19 30 28.38 30 43 C29.34 43 28.68 43 28 43 C28 29.47 28 15.94 28 2 C19.42 2 10.84 2 2 2 C2.09695917 9.0295398 2.1997078 16.05849346 2.31738281 23.08764648 C2.35565015 25.47854447 2.39050693 27.86949959 2.421875 30.26049805 C2.46757372 33.69861256 2.52556122 37.13633452 2.5859375 40.57421875 C2.60326431 42.17604256 2.60326431 42.17604256 2.62094116 43.81022644 C2.64081085 44.81088638 2.66068054 45.81154633 2.68115234 46.8425293 C2.69447601 47.71967087 2.70779968 48.59681244 2.7215271 49.50053406 C2.89329057 52.08411994 2.89329057 52.08411994 4.08242798 54.63484192 C5 57 5 57 4 60 C0.30633466 51.97029274 -0.14306444 44.9051439 -0.09765625 36.1328125 C-0.0962413 35.09808807 -0.09482635 34.06336365 -0.09336853 32.99728394 C-0.08779039 29.70649268 -0.07524188 26.41577054 -0.0625 23.125 C-0.05748218 20.88802182 -0.05291976 18.65104257 -0.04882812 16.4140625 C-0.03868087 10.94266056 -0.01910111 5.47140726 0 0 Z " fill="#695BD7" transform="translate(405,207)"/>
<path d="M0 0 C3 3 6 6 9 9 C8.0925 9.350625 7.185 9.70125 6.25 10.0625 C2.06135808 12.55957499 1.2480526 14.73645196 -1 19 C-4 21 -4 21 -7 21 C-7 21.66 -7 22.32 -7 23 C-7.66 23 -8.32 23 -9 23 C-8.67 24.98 -8.34 26.96 -8 29 C-8.8353125 27.9171875 -8.8353125 27.9171875 -9.6875 26.8125 C-11.97909334 24.02542701 -14.41459857 21.51358472 -17 19 C-15.88625 18.7525 -14.7725 18.505 -13.625 18.25 C-9.98427617 17.42920224 -9.98427617 17.42920224 -8.875 15.125 C-8.441875 14.073125 -8.441875 14.073125 -8 13 C-3.55555556 9 -3.55555556 9 -1 9 C-1 8.34 -1 7.68 -1 7 C-0.34 7 0.32 7 1 7 C0.67 4.69 0.34 2.38 0 0 Z " fill="#7685EE" transform="translate(426,155)"/>
<path d="M0 0 C1.32 0.66 2.64 1.32 4 2 C3.67 2.99 3.34 3.98 3 5 C2.34 5 1.68 5 1 5 C1 5.66 1 6.32 1 7 C-0.64453125 8.40234375 -0.64453125 8.40234375 -2.8125 9.9375 C-4.89373771 11.41976584 -6.8127453 12.80955605 -8.60546875 14.6328125 C-10.98319937 16.96392096 -12.68354933 16.94077767 -16 17 C-21.2210138 15.51692941 -26.18466943 13.49809403 -31 11 C-30.19175781 10.80664062 -29.38351562 10.61328125 -28.55078125 10.4140625 C-27.48214844 10.15367187 -26.41351563 9.89328125 -25.3125 9.625 C-24.25675781 9.36976563 -23.20101563 9.11453125 -22.11328125 8.8515625 C-19.29593234 8.08094511 -16.68331675 7.14501457 -14 6 C-14 6.66 -14 7.32 -14 8 C-16.31 9.32 -18.62 10.64 -21 12 C-18.03 12.495 -18.03 12.495 -15 13 C-15 12.34 -15 11.68 -15 11 C-12.53513705 9.30980826 -10.16871609 8.06427279 -7.375 7 C-4.9379976 5.97389373 -3.79561761 4.88112321 -2 3 C-1.34 3 -0.68 3 0 3 C0 2.01 0 1.02 0 0 Z " fill="#A16EEA" transform="translate(424,157)"/>
<path d="M0 0 C1.75128818 0.28382946 3.50100003 0.57739529 5.25 0.875 C6.71179688 1.11863281 6.71179688 1.11863281 8.203125 1.3671875 C10.77264117 1.94855848 12.72071056 2.70840265 15 4 C9 6 9 6 6.87890625 6.5546875 C1.25776327 8.13289402 -2.25864547 10.53953524 -6.46875 14.57421875 C-8 16 -8 16 -9 16 C-9.375 13.75 -9.375 13.75 -9 11 C-4.02702703 7 -4.02702703 7 -1 7 C-0.67 4.69 -0.34 2.38 0 0 Z " fill="#1DC2E9" transform="translate(436,165)"/>
<path d="M0 0 C0.99 0.33 1.98 0.66 3 1 C2.49396008 3.16874252 2.00016187 4.99967627 1 7 C0.34 7 -0.32 7 -1 7 C-1.33 7.66 -1.66 8.32 -2 9 C-2.639375 9.2475 -3.27875 9.495 -3.9375 9.75 C-6.31728663 10.88343668 -6.31728663 10.88343668 -6.9375 13.9375 C-8 17 -8 17 -10.5 18.875 C-13 20 -13 20 -15 20 C-14.8125 17.6875 -14.8125 17.6875 -14 15 C-13.24589844 14.55398437 -12.49179687 14.10796875 -11.71484375 13.6484375 C-8.62733805 11.77372181 -6.94911831 9.78712087 -4.75 6.9375 C-4.06421875 6.05964844 -3.3784375 5.18179688 -2.671875 4.27734375 C-0.99002952 2.1207335 -0.99002952 2.1207335 0 0 Z " fill="#0CBAF5" transform="translate(434,165)"/>
<path d="M0 0 C1.32 0.66 2.64 1.32 4 2 C3.0925 2.350625 2.185 2.70125 1.25 3.0625 C-2.93864192 5.55957499 -3.7519474 7.73645196 -6 12 C-9 14 -9 14 -12 14 C-12 14.66 -12 15.32 -12 16 C-12.66 16 -13.32 16 -14 16 C-13.67 17.98 -13.34 19.96 -13 22 C-14.32 20.35 -15.64 18.7 -17 17 C-15.50228899 13.24317182 -13.38023683 11.4797895 -10.1875 9.0625 C-6.51854178 6.22184494 -3.17044293 3.38180579 0 0 Z " fill="#5896F0" transform="translate(431,162)"/>
<path d="M0 0 C1.32 0.66 2.64 1.32 4 2 C3.67 2.99 3.34 3.98 3 5 C2.34 5 1.68 5 1 5 C1 5.66 1 6.32 1 7 C-0.64453125 8.40234375 -0.64453125 8.40234375 -2.8125 9.9375 C-4.90087768 11.42485095 -6.82376665 12.82122482 -8.625 14.6484375 C-10.31858294 16.31315255 -11.69280209 16.60220726 -14 17 C-13.6875 15.0625 -13.6875 15.0625 -13 13 C-12.01 12.67 -11.02 12.34 -10 12 C-10 11.34 -10 10.68 -10 10 C-9.01 9.67 -8.02 9.34 -7 9 C-5.32932867 7.00334402 -3.66247014 5.00348966 -2 3 C-1.34 3 -0.68 3 0 3 C0 2.01 0 1.02 0 0 Z " fill="#8D78F3" transform="translate(424,157)"/>
<path d="M0 0 C1.32 0.33 2.64 0.66 4 1 C3.01 1 2.02 1 1 1 C0.8453125 2.36125 0.8453125 2.36125 0.6875 3.75 C-0.08543168 9.26282152 -1.59567091 14.62115462 -3 20 C-0.08235 21.9451 1.62537285 22.45276317 5 23 C5 23.66 5 24.32 5 25 C6.65 25 8.3 25 10 25 C10 25.66 10 26.32 10 27 C4.30860098 25.90301833 -0.74567937 24.45946923 -6 22 C-4.47536437 14.50387484 -2.31993846 7.28640866 0 0 Z " fill="#6557DA" transform="translate(44,250)"/>
<path d="M0 0 C0.8971875 0.309375 0.8971875 0.309375 1.8125 0.625 C1.1525 0.625 0.4925 0.625 -0.1875 0.625 C-0.39375 1.305625 -0.6 1.98625 -0.8125 2.6875 C-2.65083744 6.61485727 -4.84544579 9.8261239 -8.1875 12.625 C-12.0625 13.5625 -12.0625 13.5625 -15.1875 13.625 C-15.1875 12.965 -15.1875 12.305 -15.1875 11.625 C-14.465625 11.46 -13.74375 11.295 -13 11.125 C-9.41692947 9.21402905 -8.31212466 6.99344234 -6.3984375 3.5 C-4.67345757 0.82906334 -3.26120796 -0.55906422 0 0 Z " fill="#30ACFB" transform="translate(434.1875,164.375)"/>
<path d="M0 0 C0.66 0.99 1.32 1.98 2 3 C1.34 3 0.68 3 0 3 C0 6.63 0 10.26 0 14 C-0.66 14 -1.32 14 -2 14 C-1.34650367 21.55038422 -1.34650367 21.55038422 0 29 C-0.66 29 -1.32 29 -2 29 C-4.67361975 19.012594 -4.86895607 9.31452465 0 0 Z " fill="#5E50E8" transform="translate(269,225)"/>
<path d="M0 0 C0.73412109 -0.00322266 1.46824219 -0.00644531 2.22460938 -0.00976562 C7.05835695 0.03741381 11.10011874 0.79145285 15.6875 2.3125 C15.6875 1.6525 15.6875 0.9925 15.6875 0.3125 C16.3475 0.3125 17.0075 0.3125 17.6875 0.3125 C18.3475 1.9625 19.0075 3.6125 19.6875 5.3125 C19.01847656 5.0959375 18.34945312 4.879375 17.66015625 4.65625 C8.55862014 2.01741537 0.06116249 2.01263165 -9.3125 2.3125 C-9.3125 4.2925 -9.3125 6.2725 -9.3125 8.3125 C-9.9725 8.3125 -10.6325 8.3125 -11.3125 8.3125 C-11.6425 6.6625 -11.9725 5.0125 -12.3125 3.3125 C-8.66034625 -0.33965375 -4.86401334 -0.10509968 0 0 Z " fill="#6255D6" transform="translate(76.3125,202.6875)"/>
<path d="M0 0 C1.52367187 0.10828125 1.52367187 0.10828125 3.078125 0.21875 C11.39933534 0.78748769 19.65398389 1.14226164 28 1 C20.78278042 5.17298952 11.82886819 4.36122891 3.9609375 2.66796875 C2 2 2 2 0 0 Z " fill="#6354D8" transform="translate(365,274)"/>
<path d="M0 0 C-1.1196986 1.00593243 -2.2459412 2.0045849 -3.375 3 C-4.31472656 3.8353125 -4.31472656 3.8353125 -5.2734375 4.6875 C-7 6 -7 6 -9 6 C-9 6.66 -9 7.32 -9 8 C-11.875 8.125 -11.875 8.125 -15 8 C-15.66 7.34 -16.32 6.68 -17 6 C-16.36191406 5.81824219 -15.72382813 5.63648438 -15.06640625 5.44921875 C-14.24011719 5.19785156 -13.41382813 4.94648438 -12.5625 4.6875 C-11.32693359 4.32205078 -11.32693359 4.32205078 -10.06640625 3.94921875 C-9.38449219 3.63597656 -8.70257813 3.32273438 -8 3 C-7.67 2.01 -7.34 1.02 -7 0 C-2.25 -1.125 -2.25 -1.125 0 0 Z " fill="#B961F4" transform="translate(418,162)"/>
<path d="M0 0 C1.32 0.33 2.64 0.66 4 1 C3.85780436 3.20857055 3.71108153 5.41684987 3.5625 7.625 C3.48128906 8.85476562 3.40007812 10.08453125 3.31640625 11.3515625 C3.03336056 14.61532388 2.58961047 17.77943859 2 21 C0.02 20.67 -1.96 20.34 -4 20 C-2.68 19.67 -1.36 19.34 0 19 C0 16.36 0 13.72 0 11 C0.66 11 1.32 11 2 11 C1.85892253 9.54119891 1.71197585 8.08296449 1.5625 6.625 C1.48128906 5.81289062 1.40007812 5.00078125 1.31640625 4.1640625 C1.10909886 1.95727195 1.10909886 1.95727195 0 0 Z " fill="#685AD5" transform="translate(171,210)"/>
<path d="M0 0 C0 0.33 0 0.66 0 1 C-1.19238281 1.18175781 -2.38476562 1.36351562 -3.61328125 1.55078125 C-5.17979082 1.80404926 -6.74619162 2.05799072 -8.3125 2.3125 C-9.09818359 2.43044922 -9.88386719 2.54839844 -10.69335938 2.66992188 C-11.45068359 2.79560547 -12.20800781 2.92128906 -12.98828125 3.05078125 C-13.68477783 3.16075439 -14.38127441 3.27072754 -15.09887695 3.3840332 C-17.38328911 4.12418626 -18.44368976 5.20524004 -20 7 C-21.32 6.01 -22.64 5.02 -24 4 C-15.90312023 1.08071682 -8.60524677 -0.15096924 0 0 Z " fill="#6959E0" transform="translate(309,206)"/>
<path d="M0 0 C1.36511719 0.29197266 1.36511719 0.29197266 2.7578125 0.58984375 C3.45648438 0.74582031 4.15515625 0.90179688 4.875 1.0625 C4.545 1.7225 4.215 2.3825 3.875 3.0625 C-0.41269786 4.36180238 -4.69010345 4.13766774 -9.125 4.0625 C-6.83123974 -1.01654058 -5.32257017 -1.16004734 0 0 Z " fill="#2ACAE0" transform="translate(446.125,166.9375)"/>
<path d="M0 0 C0.5625 1.9375 0.5625 1.9375 1 4 C0.67 4.33 0.34 4.66 0 5 C-0.165 6.155 -0.33 7.31 -0.5 8.5 C-1 12 -1 12 -2 13 C-2.07319621 15.69654854 -2.09242537 18.36691458 -2.0625 21.0625 C-2.05798828 21.82111328 -2.05347656 22.57972656 -2.04882812 23.36132812 C-2.0370068 25.24091871 -2.01907078 27.12046899 -2 29 C-5.3344947 23.57144263 -4.55518457 17.12639721 -4 11 C-2.97743635 7.17205521 -1.64618828 3.60103686 0 0 Z " fill="#685BD9" transform="translate(184,224)"/>
<path d="M0 0 C0.08687496 3.12482562 0.14034568 6.24934246 0.1875 9.375 C0.22520508 10.70917969 0.22520508 10.70917969 0.26367188 12.0703125 C0.27817383 13.34648437 0.27817383 13.34648437 0.29296875 14.6484375 C0.3086792 15.43395996 0.32438965 16.21948242 0.34057617 17.02880859 C0.22818604 17.67930176 0.1157959 18.32979492 0 19 C-3 21 -3 21 -6 21 C-5.67 20.01 -5.34 19.02 -5 18 C-4.01 18 -3.02 18 -2 18 C-2 12.72 -2 7.44 -2 2 C-3.65 1.67 -5.3 1.34 -7 1 C-3.375 -1.125 -3.375 -1.125 0 0 Z " fill="#655ACD" transform="translate(399,254)"/>
<path d="M0 0 C0.33 0 0.66 0 1 0 C1 4.95 1 9.9 1 15 C0.34 15 -0.32 15 -1 15 C-1 15.99 -1 16.98 -1 18 C-1.99 18.66 -2.98 19.32 -4 20 C-4.99 19.67 -5.98 19.34 -7 19 C-6.38125 18.46375 -5.7625 17.9275 -5.125 17.375 C-0.65996871 12.38467091 -0.89275062 7.32771324 -1 1 C-0.67 0.67 -0.34 0.34 0 0 Z " fill="#6556D8" transform="translate(318,235)"/>
<path d="M0 0 C2.0625 1.75 2.0625 1.75 4 4 C3.75 6.25 3.75 6.25 3 8 C1.68 8.33 0.36 8.66 -1 9 C-1 8.34 -1 7.68 -1 7 C-0.34 7 0.32 7 1 7 C0.67 4.69 0.34 2.38 0 0 Z M-3 9 C-2.34 9.33 -1.68 9.66 -1 10 C-2.98 10.99 -2.98 10.99 -5 12 C-4.34 11.01 -3.68 10.02 -3 9 Z M-7 12 C-6.34 12.33 -5.68 12.66 -5 13 C-6.65 14.32 -8.3 15.64 -10 17 C-8.125 13.125 -8.125 13.125 -7 12 Z " fill="#8081EB" transform="translate(426,155)"/>
<path d="M0 0 C2 3 2 3 2 7 C1.34 7 0.68 7 0 7 C0 7.99 0 8.98 0 10 C-2.8125 12.75 -2.8125 12.75 -6 15 C-6.99 14.67 -7.98 14.34 -9 14 C-6.375 10.125 -6.375 10.125 -3 9 C-1.97718482 6.90280128 -1.97718482 6.90280128 -1.3125 4.4375 C-1.06113281 3.61121094 -0.80976563 2.78492188 -0.55078125 1.93359375 C-0.36902344 1.29550781 -0.18726563 0.65742188 0 0 Z " fill="#A96AF4" transform="translate(424,150)"/>
<path d="M0 0 C-0.33 0.99 -0.66 1.98 -1 3 C-1 2.34 -1 1.68 -1 1 C-2.65 1 -4.3 1 -6 1 C-6 1.66 -6 2.32 -6 3 C-10.95 3 -15.9 3 -21 3 C-21 2.67 -21 2.34 -21 2 C-13.94546999 0.79556805 -7.16562789 -0.28100502 0 0 Z " fill="#6859DF" transform="translate(384,182)"/>
<path d="M0 0 C0.66 0.66 1.32 1.32 2 2 C-1.80411834 5.91939465 -5.81576108 9.49102731 -10 13 C-10.66 12.67 -11.32 12.34 -12 12 C-9.35132386 9.27342162 -6.70246599 6.70870428 -3.75 4.3125 C-0.98257806 2.2957678 -0.98257806 2.2957678 0 0 Z " fill="#668DF7" transform="translate(430,160)"/>
<path d="M0 0 C0.66 0 1.32 0 2 0 C2.33 2.64 2.66 5.28 3 8 C1.35 8.66 -0.3 9.32 -2 10 C-1.46274105 6.62294375 -0.88935377 3.303314 0 0 Z " fill="#C25EF5" transform="translate(421,147)"/>
<path d="M0 0 C1.03026944 6.69675136 1.10152799 13.2314676 1 20 C0.67 20 0.34 20 0 20 C-0.66 14.06 -1.32 8.12 -2 2 C-3.32 1.67 -4.64 1.34 -6 1 C-3.92446352 0.4465236 -2.15634036 0 0 0 Z " fill="#695CD6" transform="translate(447,253)"/>
<path d="M0 0 C2.31 0.33 4.62 0.66 7 1 C7.05399736 2.45792884 7.09279177 3.91642712 7.125 5.375 C7.14820312 6.18710938 7.17140625 6.99921875 7.1953125 7.8359375 C7 10 7 10 5 12 C2.31160615 12.26991906 -0.29141936 12.08737357 -3 12 C-3 11.67 -3 11.34 -3 11 C-0.36 10.34 2.28 9.68 5 9 C5.41870553 6.66928121 5.41870553 6.66928121 5 4 C2.60140956 1.66369252 2.60140956 1.66369252 0 0 Z " fill="#6659DD" transform="translate(75,243)"/>
<path d="M0 0 C0.33 0.66 0.66 1.32 1 2 C-4.625 5 -4.625 5 -8 5 C-7.67 5.99 -7.34 6.98 -7 8 C-11.455 7.01 -11.455 7.01 -16 6 C-12.84430286 4.42215143 -10.21940856 3.39090602 -6.875 2.4375 C-3.35301984 1.4351609 -3.35301984 1.4351609 0 0 Z " fill="#9F6FC9" transform="translate(409,163)"/>
<path d="M0 0 C3.71599191 -0.20086443 4.77208445 -0.1519437 8 2 C10.27912938 2.45394552 10.27912938 2.45394552 12.6875 2.625 C13.49574219 2.69976562 14.30398437 2.77453125 15.13671875 2.8515625 C15.75160156 2.90054687 16.36648437 2.94953125 17 3 C17 3.66 17 4.32 17 5 C10.54487966 5.56131481 5.84560277 3.63463787 0 1 C0 0.67 0 0.34 0 0 Z " fill="#6154D7" transform="translate(133,272)"/>
<path d="M0 0 C1.32 0.66 2.64 1.32 4 2 C3.01 2.66 2.02 3.32 1 4 C-1.59249891 5.94437418 -3.72209342 7.61520628 -5.625 10.25 C-6.07875 10.8275 -6.5325 11.405 -7 12 C-7.99 12 -8.98 12 -10 12 C-10 11.34 -10 10.68 -10 10 C-9.01 9.67 -8.02 9.34 -7 9 C-5.32932867 7.00334402 -3.66247014 5.00348966 -2 3 C-1.34 3 -0.68 3 0 3 C0 2.01 0 1.02 0 0 Z " fill="#9773F0" transform="translate(424,157)"/>
<path d="M0 0 C-1.2065625 0.61875 -1.2065625 0.61875 -2.4375 1.25 C-5.14109718 2.73452331 -5.14109718 2.73452331 -5.8125 5.1875 C-5.9053125 6.0846875 -5.9053125 6.0846875 -6 7 C-5.34 7 -4.68 7 -4 7 C-4 7.99 -4 8.98 -4 10 C-4.66 10 -5.32 10 -6 10 C-6.66 6.7 -7.32 3.4 -8 0 C-4.29847322 -0.92538169 -3.36541838 -1.08174162 0 0 Z " fill="#2EB2F0" transform="translate(425,178)"/>
<path d="M0 0 C1.38308641 2.76617283 0.90563946 4.07408791 0 7 C-1.9375 9.3125 -1.9375 9.3125 -4 11 C-4.66 11 -5.32 11 -6 11 C-4.54955729 6.89041233 -2.48889248 3.56741255 0 0 Z " fill="#6557DF" transform="translate(125,218)"/>
<path d="M0 0 C1.6510403 0.39553053 3.2958515 0.81713897 4.9375 1.25 C5.85402344 1.48203125 6.77054687 1.7140625 7.71484375 1.953125 C10 3 10 3 10.81640625 5.109375 C10.87699219 5.73328125 10.93757813 6.3571875 11 7 C10.360625 6.525625 9.72125 6.05125 9.0625 5.5625 C5.07818481 3.52968613 1.41505926 3.2789471 -3 3 C-2.01 2.67 -1.02 2.34 0 2 C0 1.34 0 0.68 0 0 Z " fill="#6153DC" transform="translate(304,225)"/>
<path d="M0 0 C0 3 0 3 -2.3125 5.6875 C-5 8 -5 8 -8 8 C-8 8.66 -8 9.32 -8 10 C-8.66 9.67 -9.32 9.34 -10 9 C-6.83047153 5.73991357 -3.60062011 2.77762123 0 0 Z " fill="#499BFB" transform="translate(427,168)"/>
<path d="M0 0 C0.33 0 0.66 0 1 0 C1.18451025 10.55808656 1.18451025 10.55808656 0 15 C-0.66 15 -1.32 15 -2 15 C-1.85879286 13.06215735 -1.71187127 11.12473045 -1.5625 9.1875 C-1.48128906 8.10855469 -1.40007812 7.02960938 -1.31640625 5.91796875 C-1 3 -1 3 0 0 Z " fill="#6353E3" transform="translate(118,230)"/>
<path d="M0 0 C0 4.26861765 -1.65525557 6.48288335 -4 10 C-4.99 10 -5.98 10 -7 10 C-5.6062718 5.56541027 -3.39417765 3.12621626 0 0 Z " fill="#6555DC" transform="translate(277,215)"/>
<path d="M0 0 C0.8971875 0.309375 0.8971875 0.309375 1.8125 0.625 C0.92304688 1.00785156 0.92304688 1.00785156 0.015625 1.3984375 C-2.39974538 2.74316498 -3.69961706 4.11714367 -5.4375 6.25 C-5.95828125 6.88164062 -6.4790625 7.51328125 -7.015625 8.1640625 C-7.40234375 8.64617187 -7.7890625 9.12828125 -8.1875 9.625 C-8.1875 5.99172806 -7.23163589 4.57764073 -5.1875 1.625 C-2.1875 -0.375 -2.1875 -0.375 0 0 Z " fill="#3EA6F7" transform="translate(434.1875,164.375)"/>
<path d="M0 0 C0.99 1.485 0.99 1.485 2 3 C3.91738499 5.45664952 5.79582183 7.79582183 8 10 C4.6479941 9.40142752 2.38682245 8.47206611 0 6 C-0.25 2.8125 -0.25 2.8125 0 0 Z M-1 7 C-0.01 7.495 -0.01 7.495 1 8 C0.01 8.495 0.01 8.495 -1 9 C-1 8.34 -1 7.68 -1 7 Z " fill="#6354E1" transform="translate(293,246)"/>
<path d="M0 0 C0.99 0.33 1.98 0.66 3 1 C2.49396008 3.16874252 2.00016187 4.99967627 1 7 C0.34 7 -0.32 7 -1 7 C-1.33 7.66 -1.66 8.32 -2 9 C-2 5.61976483 -1.12544378 3.16531063 0 0 Z " fill="#08BDF4" transform="translate(434,165)"/>
<path d="M0 0 C1.88005784 2.82008676 2.45675093 4.34323664 3.125 7.5625 C3.29257812 8.34753906 3.46015625 9.13257813 3.6328125 9.94140625 C4 12 4 12 4 14 C3.34 14 2.68 14 2 14 C1.66179834 12.4176994 1.32964061 10.83410625 1 9.25 C0.814375 8.36828125 0.62875 7.4865625 0.4375 6.578125 C0 4 0 4 0 0 Z " fill="#6355D5" transform="translate(265,240)"/>
<path d="M0 0 C1.32 0.66 2.64 1.32 4 2 C3.67 3.32 3.34 4.64 3 6 C1.68 5.34 0.36 4.68 -1 4 C-0.67 2.68 -0.34 1.36 0 0 Z " fill="#6956F1" transform="translate(321,209)"/>
<path d="M0 0 C0.33 0.66 0.66 1.32 1 2 C1.99 2.33 2.98 2.66 4 3 C1.525 4.485 1.525 4.485 -1 6 C-1.33 5.01 -1.66 4.02 -2 3 C-1.34 2.01 -0.68 1.02 0 0 Z " fill="#6556E8" transform="translate(245,265)"/>
<path d="M0 0 C0.99 0.33 1.98 0.66 3 1 C4.1875 4.5625 4.1875 4.5625 5 8 C2.20127563 5.47211993 0.54226981 3.79588866 0 0 Z " fill="#6859D9" transform="translate(39,220)"/>
<path d="M0 0 C0.33 0.66 0.66 1.32 1 2 C0.34 2 -0.32 2 -1 2 C-1.33 2.99 -1.66 3.98 -2 5 C-3.65 5.33 -5.3 5.66 -7 6 C-2.25 1.125 -2.25 1.125 0 0 Z " fill="#6659DE" transform="translate(198,211)"/>
<path d="M0 0 C2 3 2 3 2 7 C1.34 7 0.68 7 0 7 C0 7.66 0 8.32 0 9 C-0.66 9 -1.32 9 -2 9 C-1.34 6.03 -0.68 3.06 0 0 Z " fill="#AB6BE4" transform="translate(424,150)"/>
</svg>
